<svg width="512" height="512" viewBox="0 0 512 512" xmlns="http://www.w3.org/2000/svg">
  <!-- Safe zone for the icon -->
  <rect width="512" height="512" fill="white" />
  <svg x="10%" y="10%" width="80%" height="80%" viewBox="0 0 24 24" xmlns="http://www.w3.org/2000/svg" fill="none" stroke="#16a34a" stroke-width="2" stroke-linecap="round" stroke-linejoin="round">
    <path d="M12 22c-3 0-5-2-5-5 0-3 2-5 5-5s5 2 5 5c0 3-2 5-5 5z"/>
    <path d="M12 2c3 0 5 2 5 5 0 3-2 5-5 5S7 10 7 7c0-3 2-5 5-5z"/>
    <path d="M7 7c0 3 2 5 5 5"/>
  </svg>
</svg>
